<?xml version="1.0" standalone="no"?>
<!DOCTYPE svg PUBLIC "-//W3C//DTD SVG 20010904//EN"
 "http://www.w3.org/TR/2001/REC-SVG-20010904/DTD/svg10.dtd">
<svg version="1.0" xmlns="http://www.w3.org/2000/svg"
 width="315.000000pt" height="315.000000pt" viewBox="0 0 315.000000 315.000000"
 preserveAspectRatio="xMidYMid meet">
<metadata>
Created by potrace 1.11, written by Peter Selinger 2001-2013
</metadata>
<g transform="translate(0.000000,315.000000) scale(0.100000,-0.100000)"
fill="#000000" stroke="none">
<path d="M1510 3090 c-44 -8 -87 -30 -123 -64 -23 -22 -37 -26 -86 -26 -32 0
-73 -5 -92 -11 -41 -14 -103 -71 -120 -110 -6 -16 -19 -29 -28 -29 -94 -3
-197 -48 -270 -121 -71 -70 -94 -125 -98 -223 -1 -60 -8 -94 -28 -137 -63
-140 -71 -247 -30 -403 14 -55 23 -106 20 -114 -3 -8 -8 -37 -11 -65 -4 -31
-14 -59 -24 -69 -26 -24 -33 -52 -22 -90 5 -18 7 -46 6 -63 -12 -137 -9 -180
18 -235 15 -30 30 -77 33 -105 7 -61 46 -130 77 -139 38 -10 73 -7 93 8 18 13
22 8 67 -83 56 -113 142 -230 265 -360 l89 -95 -9 -47 c-13 -65 -35 -83 -105
-85 -31 -2 -128 -9 -215 -18 -133 -12 -168 -19 -214 -41 -30 -15 -51 -31 -46
-35 16 -16 123 -70 215 -108 429 -182 930 -183 1371 -4 124 51 229 110 221
124 -12 20 -92 48 -151 53 -32 3 -78 8 -103 10 -25 3 -88 8 -140 11 -52 3
-112 12 -132 21 -34 15 -37 19 -44 70 l-6 54 83 87 c94 97 148 162 197 234 38
56 112 201 112 219 0 8 6 7 18 -3 28 -25 98 -20 127 10 26 26 56 107 51 139
-2 10 10 45 27 77 30 60 34 93 23 236 -2 19 1 50 6 68 7 26 5 40 -12 70 -12
21 -31 42 -43 47 -19 9 -22 18 -22 66 0 44 8 70 33 118 38 73 41 105 17 186
-9 33 -16 85 -15 115 8 168 7 172 -37 246 -49 81 -59 106 -68 165 -8 57 -36
119 -66 146 -25 23 -120 73 -138 73 -5 0 -37 24 -69 53 -38 33 -78 58 -110 68
-54 18 -148 22 -196 8 -26 -8 -34 -5 -65 28 -60 60 -146 88 -231 73z"/>
</g>
</svg>
